<?xml version="1.0" encoding="utf-8"?>
<!-- Generator: Adobe Illustrator 21.1.0, SVG Export Plug-In . SVG Version: 6.00 Build 0)  -->
<svg version="1.1" id="Layer_1" xmlns="http://www.w3.org/2000/svg" xmlns:xlink="http://www.w3.org/1999/xlink" x="0px" y="0px"
	 viewBox="0 0 512 512" style="enable-background:new 0 0 512 512;" xml:space="preserve">
<style type="text/css">
	.st0{fill:#EC008C;}
	.st1{fill:#00AEEF;}
	.st2{fill:#E6E6E6;}
	.st3{fill:#3F3F3F;}
</style>
<rect x="249.4" y="42.2" class="st0" width="252.6" height="274.8"/>
<rect x="249.4" y="8.6" class="st1" width="252.6" height="42.6"/>
<rect x="10" y="355.4" class="st2" width="492" height="138"/>
<path class="st3" d="M502,345.4H10c-5.5,0-10,4.5-10,10v138c0,5.5,4.5,10,10,10h492c5.5,0,10-4.5,10-10v-138
	C512,349.9,507.5,345.4,502,345.4z M492,394.8h-42v-29.3h42V394.8z M492,408.1v32.7h-19v-32.7H492z M436.8,483.4h-49.2v-29.3h49.2
	V483.4z M75.2,365.4h49.2v29.3H75.2V365.4z M387.6,394.8v-29.3h49.2v29.3H387.6z M413.8,408.1v32.7h-49.2v-32.7H413.8z M374.3,394.8
	h-49.2v-29.3h49.2V394.8z M351.3,408.1v32.7h-49.2v-32.7H351.3z M311.8,394.8h-49.1v-29.3h49.1V394.8z M288.8,408.1v32.7h-49.2
	v-32.7H288.8z M249.3,394.8h-49.2v-29.3h49.2V394.8z M226.3,408.1v32.7h-49.2v-32.7H226.3z M186.9,394.8h-49.2v-29.3h49.2V394.8z
	 M163.9,408.1v32.7h-49.2v-32.7H163.9z M101.4,408.1v32.7H52.2v-32.7H101.4z M124.4,454.1v29.3H75.2v-29.3H124.4z M137.7,454.1h49.2
	v29.3h-49.2V454.1z M200.2,454.1h111.6v29.3H200.2V454.1z M325.1,454.1h49.2v29.3h-49.2V454.1z M427.1,440.8v-32.7h32.7v32.7H427.1z
	 M61.9,365.4v29.3H20v-29.3H61.9z M38.9,408.1v32.7H20v-32.7H38.9z M20,454.1h42v29.3H20V454.1z M450.1,483.4v-29.3h42v29.3H450.1z"
	/>
<rect x="10" y="8.6" class="st1" width="193.7" height="308.5"/>
<g>
	<rect x="44.2" y="50.8" class="st0" width="125.2" height="16"/>
	<rect x="44.2" y="92.4" class="st0" width="70.7" height="16"/>
	<rect x="44.2" y="134" class="st0" width="125.2" height="16"/>
	<rect x="44.2" y="175.6" class="st0" width="70.7" height="16"/>
	<rect x="44.2" y="217.2" class="st0" width="125.2" height="16"/>
	<rect x="44.2" y="258.8" class="st0" width="70.7" height="16"/>
</g>
<g>
	<polygon class="st3" points="328.1,228.4 279.1,179.5 328.1,130.5 338.5,140.9 299.8,179.5 338.5,218.1 	"/>
	<polygon class="st3" points="423.3,228.4 413,218.1 451.6,179.5 413,140.9 423.3,130.5 472.3,179.5 	"/>
	
		<rect x="319.6" y="172.1" transform="matrix(0.2436 -0.9699 0.9699 0.2436 110.1186 500.1133)" class="st3" width="112.2" height="14.7"/>
</g>
</svg>
