<?xml version="1.0" encoding="utf-8"?>
<!-- Generator: Adobe Illustrator 21.1.0, SVG Export Plug-In . SVG Version: 6.00 Build 0)  -->
<svg version="1.1" id="Layer_1" xmlns="http://www.w3.org/2000/svg" xmlns:xlink="http://www.w3.org/1999/xlink" x="0px" y="0px"
	 viewBox="0 0 720 720" style="enable-background:new 0 0 720 720;" xml:space="preserve">
<style type="text/css">
	.st0{fill:#EC008C;}
	.st1{fill:#FFFFFF;}
	.st2{font-family:'BebasNeue';}
	.st3{font-size:104.7667px;}
	.st4{fill:none;}
	.st5{fill:#FFFEF9;}
	.st6{font-size:55.9952px;}
	.st7{letter-spacing:41;}
</style>
<g>
	<path d="M581.5,392.7H82.7v58.1c0,14.7,12,26.7,26.7,26.7h472.1c14.7,0,26.7-12,26.7-26.7v-31.4
		C608.2,404.7,596.2,392.7,581.5,392.7z"/>
	<path class="st0" d="M600.9,240.8H128.8c-17.1,0-31,13.9-31,31v116.5h483.7c15.5,0,28.3,11.3,30.6,26.2
		c11.6-4.5,19.8-15.7,19.8-28.9V271.8C631.9,254.7,618,240.8,600.9,240.8z"/>
	<g>
		<text transform="matrix(1 0 0 1 138.6924 363.9248)" class="st1 st2 st3">FROM DAY ONE</text>
	</g>
	<rect x="108.5" y="414.2" class="st4" width="467.3" height="49.2"/>
	<text transform="matrix(1 0 0 1 108.5244 453.4121)"><tspan x="0" y="0" class="st5 st2 st6 st7">BROOKLY</tspan><tspan x="443.4" y="0" class="st5 st2 st6">N</tspan></text>
</g>
<g>
</g>
</svg>
