<?xml version="1.0" encoding="utf-8"?>
<!-- Generator: Adobe Illustrator 21.1.0, SVG Export Plug-In . SVG Version: 6.00 Build 0)  -->
<svg version="1.1" id="Layer_1" xmlns="http://www.w3.org/2000/svg" xmlns:xlink="http://www.w3.org/1999/xlink" x="0px" y="0px"
	 viewBox="0 0 512 512" style="enable-background:new 0 0 512 512;" xml:space="preserve">
<style type="text/css">
	.st0{fill:#00AEEF;}
	.st1{fill:#FFFEF9;}
	.st2{fill:#EC008C;}
	.st3{fill:#3F3F3F;}
</style>
<path class="st0" d="M452.6,512H59.4c-5.5,0-9.9-4.4-9.9-9.9V263.8c0-5.5,4.4-9.9,9.9-9.9h393.2c5.5,0,9.9,4.4,9.9,9.9v238.3
	C462.5,507.6,458.1,512,452.6,512z"/>
<rect x="82.8" y="213.9" class="st1" width="346.4" height="269.8"/>
<path class="st2" d="M287.5,287c7.2-7.1,17.1-11.5,28.1-11.5c21.8,0,39.5,17.4,40,39.1c2-0.4,4-0.6,6-0.6
	c17.1,0,31.1,13.9,31.1,31.1c0,17.1-13.9,31-31.1,31c-7,0-13.5-2.3-18.7-6.3c-5.6,8.1-15,13.5-25.6,13.5c-10.4,0-19.7-5.1-25.3-13
	c-4.8,3-10.4,4.7-16.4,4.7c-6.5,0-12.6-2-17.6-5.4c-0.7-0.5-1.4-1-2.1-1.6c-5.4,4.4-12.2,7-19.6,7c-6,0-11.6-1.7-16.4-4.7
	c-5.6,7.9-14.8,13-25.3,13c-10.6,0-20-5.3-25.6-13.5c-5.2,3.9-11.7,6.3-18.7,6.3c-17.1,0-31-13.9-31-31c0-17.2,13.9-31.1,31-31.1
	c2.1,0,4.1,0.2,6.1,0.6c0.5-21.7,18.2-39.1,40-39.1c10.9,0,20.8,4.4,28.1,11.5v-73.1v-63.5h62.9v63.5L287.5,287L287.5,287z"/>
<path class="st3" d="M429.2,453.7v30H256c0-16.6,13.4-30,30-30H429.2z"/>
<path class="st3" d="M226,453.7c16.6,0,30,13.4,30,30H82.8v-30H226z"/>
<g>
	<path class="st0" d="M211.6,82.6c33.3,6.6,56.3,25.4,44.4,82.6c0,0-55.5-5-80.5,20C175.5,112,211.6,82.6,211.6,82.6z"/>
	<path class="st0" d="M300.4,82.6c0,0,36.1,29.4,36.1,102.6c-25-25-80.5-20-80.5-20C239.3,123.9,256,95.1,300.4,82.6z"/>
	<path class="st0" d="M284.1,28.1c0,13.9-17.4,29.5-28.1,29.5c-10.6,0-25.2-18.5-28.1-29.5l0,0C235.3,17,244.9,7.4,256,0
		C267.1,7.4,276.7,17,284.1,28.1z"/>
</g>
<path class="st1" d="M284.1,28.1c10.3,15.6,16.3,34.3,16.3,54.5c0,34.5-17.6,64.9-44.4,82.6c-26.8-17.7-44.4-48.1-44.4-82.6
	c0-20.1,6-38.8,16.3-54.5l0,0c7.6,6.3,17.4,10,28.1,10C266.7,38.2,276.4,34.4,284.1,28.1z"/>
<path class="st2" d="M256,63c10.3,0,18.7,8.4,18.7,18.7s-8.4,18.7-18.7,18.7c-10.4,0-18.7-8.4-18.7-18.7S245.7,63,256,63z"/>
<path class="st3" d="M256,105.8c-13.3,0-24.1-10.8-24.1-24.1s10.8-24.1,24.1-24.1c13.3,0,24.1,10.8,24.1,24.1S269.3,105.8,256,105.8
	z M256,68.3c-7.4,0-13.4,6-13.4,13.4s6,13.4,13.4,13.4s13.4-6,13.4-13.4S263.4,68.3,256,68.3z"/>
</svg>
