<?xml version="1.0" encoding="utf-8"?>
<!-- Generator: Adobe Illustrator 21.1.0, SVG Export Plug-In . SVG Version: 6.00 Build 0)  -->
<svg version="1.1" id="Layer_1" xmlns="http://www.w3.org/2000/svg" xmlns:xlink="http://www.w3.org/1999/xlink" x="0px" y="0px"
	 viewBox="0 0 512 512" style="enable-background:new 0 0 512 512;" xml:space="preserve">
<style type="text/css">
	.st0{fill:#00AEEF;}
	.st1{fill:#3F3F3F;}
	.st2{fill:#EC008C;}
</style>
<g>
	<path class="st0" d="M299.3,0v119H3.3V0H299.3z"/>
	<rect x="3.3" y="119" class="st0" width="296" height="269"/>
	<path class="st0" d="M508.7,278v232.1H342.3V278H508.7z"/>
	<path class="st0" d="M508.7,138.7v99.1H342.3v-99.1L508.7,138.7L508.7,138.7z"/>
	<path class="st0" d="M508.7,0v99.1H342.3V0H508.7z M450.7,49.6c0-13.9-11.3-25.2-25.2-25.2s-25.2,11.3-25.2,25.2
		s11.3,25.2,25.2,25.2S450.7,63.5,450.7,49.6z"/>
</g>
<g>
	<rect x="441.5" y="167.4" class="st1" width="39.3" height="13"/>
	<rect x="441.5" y="196" class="st1" width="39.3" height="13"/>
	<rect x="374" y="398.6" class="st1" width="102.9" height="15.6"/>
	<rect x="374" y="428.1" class="st1" width="102.9" height="15.6"/>
	<rect x="374" y="457.7" class="st1" width="102.9" height="15.6"/>
</g>
<rect x="3.3" y="110.6" class="st2" width="296" height="16.9"/>
<g>
	<rect x="31.9" y="184" class="st1" width="238.8" height="14.3"/>
	<rect x="31.9" y="214.4" class="st1" width="238.8" height="14.3"/>
	<rect x="31.9" y="245" class="st1" width="238.8" height="14.3"/>
	<rect x="220.5" y="289.7" class="st1" width="50.2" height="14.3"/>
	<rect x="94.1" y="153.5" class="st1" width="114.3" height="14.3"/>
</g>
<path class="st2" d="M425.5,24.3c13.9,0,25.2,11.3,25.2,25.2s-11.3,25.2-25.2,25.2s-25.2-11.3-25.2-25.2S411.6,24.3,425.5,24.3z"/>
<path class="st1" d="M425.5,81.3c-17.5,0-31.7-14.2-31.7-31.7s14.2-31.7,31.7-31.7s31.7,14.2,31.7,31.7
	C457.3,67.1,443,81.3,425.5,81.3z M425.5,30.8c-10.3,0-18.7,8.4-18.7,18.7s8.4,18.7,18.7,18.7c10.3,0,18.7-8.4,18.7-18.7
	S435.8,30.8,425.5,30.8z"/>
<path class="st2" d="M394.3,163c13.9,0,25.2,11.3,25.2,25.2s-11.3,25.2-25.2,25.2S369,202.1,369,188.2
	C369,174.3,380.3,163,394.3,163z"/>
<path class="st1" d="M394.3,219.9c-17.5,0-31.7-14.2-31.7-31.7s14.2-31.7,31.7-31.7s31.7,14.2,31.7,31.7S411.8,219.9,394.3,219.9z
	 M394.3,169.5c-10.3,0-18.7,8.4-18.7,18.7s8.4,18.7,18.7,18.7c10.3,0,18.7-8.4,18.7-18.7S404.6,169.5,394.3,169.5z"/>
<path class="st2" d="M425.5,313.9c13.9,0,25.2,11.3,25.2,25.2c0,13.9-11.3,25.2-25.2,25.2s-25.2-11.3-25.2-25.2
	C400.3,325.2,411.6,313.9,425.5,313.9z"/>
<path class="st1" d="M425.5,370.9c-17.5,0-31.7-14.2-31.7-31.7s14.2-31.7,31.7-31.7s31.7,14.2,31.7,31.7
	C457.2,356.6,443,370.9,425.5,370.9z M425.5,320.4c-10.3,0-18.7,8.4-18.7,18.7c0,10.3,8.4,18.7,18.7,18.7c10.3,0,18.7-8.4,18.7-18.7
	S435.8,320.4,425.5,320.4z"/>
<path class="st2" d="M70.2,35.4c13.9,0,25.2,11.3,25.2,25.2S84.1,85.8,70.2,85.8S45,74.6,45,60.6C45,46.7,56.2,35.4,70.2,35.4z"/>
<path class="st1" d="M70.2,92.4c-17.5,0-31.7-14.2-31.7-31.7S52.7,29,70.2,29s31.7,14.2,31.7,31.7C101.9,78.1,87.7,92.4,70.2,92.4z
	 M70.2,41.9c-10.3,0-18.7,8.4-18.7,18.7s8.4,18.7,18.7,18.7s18.7-8.4,18.7-18.7C88.9,50.3,80.5,41.9,70.2,41.9z"/>
</svg>
